<svg width="209" height="68" viewBox="0 0 209 68" fill="none" xmlns="http://www.w3.org/2000/svg">
<path d="M7.744 45.7305H13.376V49.4425H5.248C3.84 48.1199 2.77333 46.4452 2.048 44.4185C1.32267 42.3919 0.96 40.3119 0.96 38.1785C0.96 36.0239 1.36533 33.9545 2.176 31.9705C2.98667 29.9865 4.192 28.3439 5.792 27.0425H13.376V30.8825H7.744C7.168 31.5439 6.66667 32.6105 6.24 34.0825C5.83467 35.5545 5.632 36.9625 5.632 38.3065C5.632 39.6505 5.83467 41.0585 6.24 42.5305C6.66667 44.0025 7.168 45.0692 7.744 45.7305ZM25.343 27.0425C26.8363 28.2585 27.9457 29.8905 28.671 31.9385C29.3963 33.9865 29.759 36.0985 29.759 38.2745C29.759 40.4292 29.407 42.4772 28.703 44.4185C27.999 46.3599 26.879 48.0345 25.343 49.4425H18.751C17.215 48.0345 16.095 46.3599 15.391 44.4185C14.687 42.4772 14.335 40.4292 14.335 38.2745C14.335 36.0985 14.6977 33.9865 15.423 31.9385C16.1483 29.8905 17.2577 28.2585 18.751 27.0425H25.343ZM20.895 45.7305H23.199C23.7323 45.1119 24.1803 44.1092 24.543 42.7225C24.927 41.3145 25.119 39.8319 25.119 38.2745C25.119 36.7172 24.9377 35.2559 24.575 33.8905C24.2123 32.5039 23.7643 31.5012 23.231 30.8825H20.895C20.3617 31.5012 19.903 32.5039 19.519 33.8905C19.1563 35.2559 18.975 36.7172 18.975 38.2745C18.975 39.8319 19.1563 41.3145 19.519 42.7225C19.903 44.1092 20.3617 45.1119 20.895 45.7305ZM36.6068 45.7305H39.4868C40.0841 44.9839 40.5534 43.8959 40.8948 42.4665C41.2574 41.0372 41.4388 39.6185 41.4388 38.2105C41.4388 34.8612 40.8094 32.4185 39.5508 30.8825H36.6068V45.7305ZM32.2548 49.4425V27.0425H41.5348C44.5641 29.7305 46.0788 33.3785 46.0788 37.9865C46.0788 42.5732 44.6601 46.3919 41.8228 49.4425H32.2548ZM48.5673 49.4425V27.0425H60.0553V30.8825H52.9513V36.2265H59.2873V39.9385H52.9513V45.7305H60.1833V49.4425H48.5673ZM62.661 27.0425H71.173C72.517 27.4905 73.6583 28.3225 74.597 29.5385C75.557 30.7332 76.037 32.2052 76.037 33.9545C76.037 36.8132 74.9063 38.9145 72.645 40.2585L75.877 49.4425H71.397L68.677 41.2825H66.981V49.4425H62.661V27.0425ZM66.981 30.8825V37.6985H69.733C70.0957 37.6132 70.4903 37.2505 70.917 36.6105C71.365 35.9492 71.589 35.1812 71.589 34.3065C71.589 33.4319 71.397 32.6639 71.013 32.0025C70.6503 31.3412 70.2877 30.9679 69.925 30.8825H66.981ZM83.4735 49.4425V27.0425H87.8575V49.4425H83.4735ZM100.926 49.4425L94.9423 37.0585L94.7823 37.1225L94.9743 40.8985V49.4425H90.9423V27.0425H94.1743L100.062 39.9065L100.222 39.8425L99.8703 35.9065V27.0425H103.902V49.4425H100.926ZM121.635 49.4425L120.963 45.8905H115.907L115.235 49.4425H110.883L115.203 27.0425H121.827L125.923 49.4425H121.635ZM118.371 31.2025L117.123 38.6585L116.419 42.4665H120.419L119.683 38.6585L118.435 31.2025H118.371ZM133.166 45.7305H135.854C136.323 45.2185 136.654 44.7065 136.846 44.1945C137.059 43.6612 137.166 42.8825 137.166 41.8585V27.0425H141.55V40.2585C141.55 41.3465 141.518 42.1999 141.454 42.8185C141.411 43.4159 141.283 44.1519 141.07 45.0265C140.707 46.5839 139.704 48.0559 138.062 49.4425H130.958C129.315 48.0985 128.312 46.6265 127.95 45.0265C127.63 43.7252 127.47 42.1359 127.47 40.2585V27.0425H131.854V41.8585C131.854 42.8825 131.95 43.6612 132.142 44.1945C132.355 44.7065 132.696 45.2185 133.166 45.7305ZM146.209 27.0425H153.889V30.8825H147.745L147.649 31.0745L152.769 40.4185C153.814 42.2959 154.337 43.7252 154.337 44.7065C154.337 46.8612 153.622 48.4399 152.193 49.4425H143.713V45.7305H150.337L150.433 45.5385L144.673 35.2025C143.841 33.7092 143.425 32.4932 143.425 31.5545C143.425 29.3359 144.353 27.8319 146.209 27.0425ZM160.183 30.8825H155.351V27.0425H169.367V30.8825H164.535V49.4425H160.183V30.8825ZM171.224 27.0425H179.736C181.08 27.4905 182.221 28.3225 183.16 29.5385C184.12 30.7332 184.6 32.2052 184.6 33.9545C184.6 36.8132 183.469 38.9145 181.208 40.2585L184.44 49.4425H179.96L177.24 41.2825H175.544V49.4425H171.224V27.0425ZM175.544 30.8825V37.6985H178.296C178.658 37.6132 179.053 37.2505 179.48 36.6105C179.928 35.9492 180.152 35.1812 180.152 34.3065C180.152 33.4319 179.96 32.6639 179.576 32.0025C179.213 31.3412 178.85 30.9679 178.488 30.8825H175.544ZM186.911 49.4425V27.0425H191.295V49.4425H186.911ZM203.916 49.4425L203.244 45.8905H198.188L197.516 49.4425H193.164L197.484 27.0425H204.108L208.204 49.4425H203.916ZM200.652 31.2025L199.404 38.6585L198.7 42.4665H202.7L201.964 38.6585L200.716 31.2025H200.652Z" fill="black"/>
<path d="M7.60156 20.2C6.70823 20.2 5.92823 20.0267 5.26156 19.68C4.60823 19.32 4.10156 18.82 3.74156 18.18C3.38156 17.5267 3.20156 16.7667 3.20156 15.9V9.5C3.20156 8.62 3.38156 7.86 3.74156 7.22C4.10156 6.58 4.60823 6.08667 5.26156 5.74C5.92823 5.38 6.70823 5.2 7.60156 5.2C8.50823 5.2 9.28823 5.38 9.94156 5.74C10.5949 6.08667 11.1016 6.58 11.4616 7.22C11.8216 7.86 12.0016 8.62 12.0016 9.5V15.9C12.0016 16.7667 11.8216 17.5267 11.4616 18.18C11.1016 18.82 10.5882 19.32 9.92156 19.68C9.26823 20.0267 8.4949 20.2 7.60156 20.2ZM7.60156 18.66C8.40156 18.66 9.04156 18.4067 9.52156 17.9C10.0149 17.38 10.2616 16.7133 10.2616 15.9V9.5C10.2616 8.68667 10.0149 8.02667 9.52156 7.52C9.04156 7 8.40156 6.74 7.60156 6.74C6.80156 6.74 6.1549 7 5.66156 7.52C5.18156 8.02667 4.94156 8.68667 4.94156 9.5V15.9C4.94156 16.7133 5.18156 17.38 5.66156 17.9C6.1549 18.4067 6.80156 18.66 7.60156 18.66ZM7.60156 13.88C7.24156 13.88 6.94823 13.7667 6.72156 13.54C6.50823 13.3133 6.40156 13.0133 6.40156 12.64C6.40156 12.28 6.50823 11.9933 6.72156 11.78C6.94823 11.5533 7.24156 11.44 7.60156 11.44C7.96156 11.44 8.24823 11.5533 8.46156 11.78C8.68823 11.9933 8.80156 12.28 8.80156 12.64C8.80156 13.0133 8.68823 13.3133 8.46156 13.54C8.24823 13.7667 7.96156 13.88 7.60156 13.88ZM15.3938 20V18.36H19.3538V6.9L15.3938 9.86V7.86L18.6938 5.4H21.1538V18.36H24.3938V20H15.3938ZM31.5859 20.2C30.6926 20.2 29.9126 20.0267 29.2459 19.68C28.5926 19.32 28.0859 18.82 27.7259 18.18C27.3659 17.5267 27.1859 16.7667 27.1859 15.9V9.5C27.1859 8.62 27.3659 7.86 27.7259 7.22C28.0859 6.58 28.5926 6.08667 29.2459 5.74C29.9126 5.38 30.6926 5.2 31.5859 5.2C32.4926 5.2 33.2726 5.38 33.9259 5.74C34.5793 6.08667 35.0859 6.58 35.4459 7.22C35.8059 7.86 35.9859 8.62 35.9859 9.5V15.9C35.9859 16.7667 35.8059 17.5267 35.4459 18.18C35.0859 18.82 34.5726 19.32 33.9059 19.68C33.2526 20.0267 32.4793 20.2 31.5859 20.2ZM31.5859 18.66C32.3859 18.66 33.0259 18.4067 33.5059 17.9C33.9993 17.38 34.2459 16.7133 34.2459 15.9V9.5C34.2459 8.68667 33.9993 8.02667 33.5059 7.52C33.0259 7 32.3859 6.74 31.5859 6.74C30.7859 6.74 30.1393 7 29.6459 7.52C29.1659 8.02667 28.9259 8.68667 28.9259 9.5V15.9C28.9259 16.7133 29.1659 17.38 29.6459 17.9C30.1393 18.4067 30.7859 18.66 31.5859 18.66ZM31.5859 13.88C31.2259 13.88 30.9326 13.7667 30.7059 13.54C30.4926 13.3133 30.3859 13.0133 30.3859 12.64C30.3859 12.28 30.4926 11.9933 30.7059 11.78C30.9326 11.5533 31.2259 11.44 31.5859 11.44C31.9459 11.44 32.2326 11.5533 32.4459 11.78C32.6726 11.9933 32.7859 12.28 32.7859 12.64C32.7859 13.0133 32.6726 13.3133 32.4459 13.54C32.2326 13.7667 31.9459 13.88 31.5859 13.88ZM39.3781 20V18.36H43.3381V6.9L39.3781 9.86V7.86L42.6781 5.4H45.1381V18.36H48.3781V20H39.3781ZM51.3703 20V18.36H55.3303V6.9L51.3703 9.86V7.86L54.6703 5.4H57.1303V18.36H60.3703V20H51.3703ZM67.5625 20.2C66.6692 20.2 65.8892 20.0267 65.2225 19.68C64.5692 19.32 64.0625 18.82 63.7025 18.18C63.3425 17.5267 63.1625 16.7667 63.1625 15.9V9.5C63.1625 8.62 63.3425 7.86 63.7025 7.22C64.0625 6.58 64.5692 6.08667 65.2225 5.74C65.8892 5.38 66.6692 5.2 67.5625 5.2C68.4692 5.2 69.2492 5.38 69.9025 5.74C70.5558 6.08667 71.0625 6.58 71.4225 7.22C71.7825 7.86 71.9625 8.62 71.9625 9.5V15.9C71.9625 16.7667 71.7825 17.5267 71.4225 18.18C71.0625 18.82 70.5492 19.32 69.8825 19.68C69.2292 20.0267 68.4558 20.2 67.5625 20.2ZM67.5625 18.66C68.3625 18.66 69.0025 18.4067 69.4825 17.9C69.9758 17.38 70.2225 16.7133 70.2225 15.9V9.5C70.2225 8.68667 69.9758 8.02667 69.4825 7.52C69.0025 7 68.3625 6.74 67.5625 6.74C66.7625 6.74 66.1158 7 65.6225 7.52C65.1425 8.02667 64.9025 8.68667 64.9025 9.5V15.9C64.9025 16.7133 65.1425 17.38 65.6225 17.9C66.1158 18.4067 66.7625 18.66 67.5625 18.66ZM67.5625 13.88C67.2025 13.88 66.9092 13.7667 66.6825 13.54C66.4692 13.3133 66.3625 13.0133 66.3625 12.64C66.3625 12.28 66.4692 11.9933 66.6825 11.78C66.9092 11.5533 67.2025 11.44 67.5625 11.44C67.9225 11.44 68.2092 11.5533 68.4225 11.78C68.6492 11.9933 68.7625 12.28 68.7625 12.64C68.7625 13.0133 68.6492 13.3133 68.4225 13.54C68.2092 13.7667 67.9225 13.88 67.5625 13.88ZM75.3547 20V18.36H79.3147V6.9L75.3547 9.86V7.86L78.6547 5.4H81.1147V18.36H84.3547V20H75.3547ZM87.3469 20V18.36H91.3069V6.9L87.3469 9.86V7.86L90.6469 5.4H93.1069V18.36H96.3469V20H87.3469ZM103.539 20.2C102.646 20.2 101.866 20.0267 101.199 19.68C100.546 19.32 100.039 18.82 99.6791 18.18C99.3191 17.5267 99.1391 16.7667 99.1391 15.9V9.5C99.1391 8.62 99.3191 7.86 99.6791 7.22C100.039 6.58 100.546 6.08667 101.199 5.74C101.866 5.38 102.646 5.2 103.539 5.2C104.446 5.2 105.226 5.38 105.879 5.74C106.532 6.08667 107.039 6.58 107.399 7.22C107.759 7.86 107.939 8.62 107.939 9.5V15.9C107.939 16.7667 107.759 17.5267 107.399 18.18C107.039 18.82 106.526 19.32 105.859 19.68C105.206 20.0267 104.432 20.2 103.539 20.2ZM103.539 18.66C104.339 18.66 104.979 18.4067 105.459 17.9C105.952 17.38 106.199 16.7133 106.199 15.9V9.5C106.199 8.68667 105.952 8.02667 105.459 7.52C104.979 7 104.339 6.74 103.539 6.74C102.739 6.74 102.092 7 101.599 7.52C101.119 8.02667 100.879 8.68667 100.879 9.5V15.9C100.879 16.7133 101.119 17.38 101.599 17.9C102.092 18.4067 102.739 18.66 103.539 18.66ZM103.539 13.88C103.179 13.88 102.886 13.7667 102.659 13.54C102.446 13.3133 102.339 13.0133 102.339 12.64C102.339 12.28 102.446 11.9933 102.659 11.78C102.886 11.5533 103.179 11.44 103.539 11.44C103.899 11.44 104.186 11.5533 104.399 11.78C104.626 11.9933 104.739 12.28 104.739 12.64C104.739 13.0133 104.626 13.3133 104.399 13.54C104.186 13.7667 103.899 13.88 103.539 13.88ZM111.331 20V18.36H115.291V6.9L111.331 9.86V7.86L114.631 5.4H117.091V18.36H120.331V20H111.331ZM127.523 20.2C126.63 20.2 125.85 20.0267 125.183 19.68C124.53 19.32 124.023 18.82 123.663 18.18C123.303 17.5267 123.123 16.7667 123.123 15.9V9.5C123.123 8.62 123.303 7.86 123.663 7.22C124.023 6.58 124.53 6.08667 125.183 5.74C125.85 5.38 126.63 5.2 127.523 5.2C128.43 5.2 129.21 5.38 129.863 5.74C130.517 6.08667 131.023 6.58 131.383 7.22C131.743 7.86 131.923 8.62 131.923 9.5V15.9C131.923 16.7667 131.743 17.5267 131.383 18.18C131.023 18.82 130.51 19.32 129.843 19.68C129.19 20.0267 128.417 20.2 127.523 20.2ZM127.523 18.66C128.323 18.66 128.963 18.4067 129.443 17.9C129.937 17.38 130.183 16.7133 130.183 15.9V9.5C130.183 8.68667 129.937 8.02667 129.443 7.52C128.963 7 128.323 6.74 127.523 6.74C126.723 6.74 126.077 7 125.583 7.52C125.103 8.02667 124.863 8.68667 124.863 9.5V15.9C124.863 16.7133 125.103 17.38 125.583 17.9C126.077 18.4067 126.723 18.66 127.523 18.66ZM127.523 13.88C127.163 13.88 126.87 13.7667 126.643 13.54C126.43 13.3133 126.323 13.0133 126.323 12.64C126.323 12.28 126.43 11.9933 126.643 11.78C126.87 11.5533 127.163 11.44 127.523 11.44C127.883 11.44 128.17 11.5533 128.383 11.78C128.61 11.9933 128.723 12.28 128.723 12.64C128.723 13.0133 128.61 13.3133 128.383 13.54C128.17 13.7667 127.883 13.88 127.523 13.88ZM139.516 20.2C138.622 20.2 137.842 20.0267 137.176 19.68C136.522 19.32 136.016 18.82 135.656 18.18C135.296 17.5267 135.116 16.7667 135.116 15.9V9.5C135.116 8.62 135.296 7.86 135.656 7.22C136.016 6.58 136.522 6.08667 137.176 5.74C137.842 5.38 138.622 5.2 139.516 5.2C140.422 5.2 141.202 5.38 141.856 5.74C142.509 6.08667 143.016 6.58 143.376 7.22C143.736 7.86 143.916 8.62 143.916 9.5V15.9C143.916 16.7667 143.736 17.5267 143.376 18.18C143.016 18.82 142.502 19.32 141.836 19.68C141.182 20.0267 140.409 20.2 139.516 20.2ZM139.516 18.66C140.316 18.66 140.956 18.4067 141.436 17.9C141.929 17.38 142.176 16.7133 142.176 15.9V9.5C142.176 8.68667 141.929 8.02667 141.436 7.52C140.956 7 140.316 6.74 139.516 6.74C138.716 6.74 138.069 7 137.576 7.52C137.096 8.02667 136.856 8.68667 136.856 9.5V15.9C136.856 16.7133 137.096 17.38 137.576 17.9C138.069 18.4067 138.716 18.66 139.516 18.66ZM139.516 13.88C139.156 13.88 138.862 13.7667 138.636 13.54C138.422 13.3133 138.316 13.0133 138.316 12.64C138.316 12.28 138.422 11.9933 138.636 11.78C138.862 11.5533 139.156 11.44 139.516 11.44C139.876 11.44 140.162 11.5533 140.376 11.78C140.602 11.9933 140.716 12.28 140.716 12.64C140.716 13.0133 140.602 13.3133 140.376 13.54C140.162 13.7667 139.876 13.88 139.516 13.88ZM147.308 20V18.36H151.268V6.9L147.308 9.86V7.86L150.608 5.4H153.068V18.36H156.308V20H147.308ZM163.5 20.2C162.607 20.2 161.827 20.0267 161.16 19.68C160.507 19.32 160 18.82 159.64 18.18C159.28 17.5267 159.1 16.7667 159.1 15.9V9.5C159.1 8.62 159.28 7.86 159.64 7.22C160 6.58 160.507 6.08667 161.16 5.74C161.827 5.38 162.607 5.2 163.5 5.2C164.407 5.2 165.187 5.38 165.84 5.74C166.493 6.08667 167 6.58 167.36 7.22C167.72 7.86 167.9 8.62 167.9 9.5V15.9C167.9 16.7667 167.72 17.5267 167.36 18.18C167 18.82 166.487 19.32 165.82 19.68C165.167 20.0267 164.393 20.2 163.5 20.2ZM163.5 18.66C164.3 18.66 164.94 18.4067 165.42 17.9C165.913 17.38 166.16 16.7133 166.16 15.9V9.5C166.16 8.68667 165.913 8.02667 165.42 7.52C164.94 7 164.3 6.74 163.5 6.74C162.7 6.74 162.053 7 161.56 7.52C161.08 8.02667 160.84 8.68667 160.84 9.5V15.9C160.84 16.7133 161.08 17.38 161.56 17.9C162.053 18.4067 162.7 18.66 163.5 18.66ZM163.5 13.88C163.14 13.88 162.847 13.7667 162.62 13.54C162.407 13.3133 162.3 13.0133 162.3 12.64C162.3 12.28 162.407 11.9933 162.62 11.78C162.847 11.5533 163.14 11.44 163.5 11.44C163.86 11.44 164.147 11.5533 164.36 11.78C164.587 11.9933 164.7 12.28 164.7 12.64C164.7 13.0133 164.587 13.3133 164.36 13.54C164.147 13.7667 163.86 13.88 163.5 13.88ZM171.292 20V18.36H175.252V6.9L171.292 9.86V7.86L174.592 5.4H177.052V18.36H180.292V20H171.292ZM187.484 20.2C186.591 20.2 185.811 20.0267 185.144 19.68C184.491 19.32 183.984 18.82 183.624 18.18C183.264 17.5267 183.084 16.7667 183.084 15.9V9.5C183.084 8.62 183.264 7.86 183.624 7.22C183.984 6.58 184.491 6.08667 185.144 5.74C185.811 5.38 186.591 5.2 187.484 5.2C188.391 5.2 189.171 5.38 189.824 5.74C190.478 6.08667 190.984 6.58 191.344 7.22C191.704 7.86 191.884 8.62 191.884 9.5V15.9C191.884 16.7667 191.704 17.5267 191.344 18.18C190.984 18.82 190.471 19.32 189.804 19.68C189.151 20.0267 188.378 20.2 187.484 20.2ZM187.484 18.66C188.284 18.66 188.924 18.4067 189.404 17.9C189.898 17.38 190.144 16.7133 190.144 15.9V9.5C190.144 8.68667 189.898 8.02667 189.404 7.52C188.924 7 188.284 6.74 187.484 6.74C186.684 6.74 186.038 7 185.544 7.52C185.064 8.02667 184.824 8.68667 184.824 9.5V15.9C184.824 16.7133 185.064 17.38 185.544 17.9C186.038 18.4067 186.684 18.66 187.484 18.66ZM187.484 13.88C187.124 13.88 186.831 13.7667 186.604 13.54C186.391 13.3133 186.284 13.0133 186.284 12.64C186.284 12.28 186.391 11.9933 186.604 11.78C186.831 11.5533 187.124 11.44 187.484 11.44C187.844 11.44 188.131 11.5533 188.344 11.78C188.571 11.9933 188.684 12.28 188.684 12.64C188.684 13.0133 188.571 13.3133 188.344 13.54C188.131 13.7667 187.844 13.88 187.484 13.88ZM199.477 20.2C198.583 20.2 197.803 20.0267 197.137 19.68C196.483 19.32 195.977 18.82 195.617 18.18C195.257 17.5267 195.077 16.7667 195.077 15.9V9.5C195.077 8.62 195.257 7.86 195.617 7.22C195.977 6.58 196.483 6.08667 197.137 5.74C197.803 5.38 198.583 5.2 199.477 5.2C200.383 5.2 201.163 5.38 201.817 5.74C202.47 6.08667 202.977 6.58 203.337 7.22C203.697 7.86 203.877 8.62 203.877 9.5V15.9C203.877 16.7667 203.697 17.5267 203.337 18.18C202.977 18.82 202.463 19.32 201.797 19.68C201.143 20.0267 200.37 20.2 199.477 20.2ZM199.477 18.66C200.277 18.66 200.917 18.4067 201.397 17.9C201.89 17.38 202.137 16.7133 202.137 15.9V9.5C202.137 8.68667 201.89 8.02667 201.397 7.52C200.917 7 200.277 6.74 199.477 6.74C198.677 6.74 198.03 7 197.537 7.52C197.057 8.02667 196.817 8.68667 196.817 9.5V15.9C196.817 16.7133 197.057 17.38 197.537 17.9C198.03 18.4067 198.677 18.66 199.477 18.66ZM199.477 13.88C199.117 13.88 198.823 13.7667 198.597 13.54C198.383 13.3133 198.277 13.0133 198.277 12.64C198.277 12.28 198.383 11.9933 198.597 11.78C198.823 11.5533 199.117 11.44 199.477 11.44C199.837 11.44 200.123 11.5533 200.337 11.78C200.563 11.9933 200.677 12.28 200.677 12.64C200.677 13.0133 200.563 13.3133 200.337 13.54C200.123 13.7667 199.837 13.88 199.477 13.88Z" fill="black"/>
</svg>
